<svg baseProfile="tiny" xmlns="http://www.w3.org/2000/svg" width="24" height="24" viewBox="0 0 1000 1000"><path d="M348.567 12.53C334.843 4.264 318.307 0 298.87 0c-20.29 0-36.824 4.265-49.612 12.53-12.788 8.353-19.27 19.26-19.27 32.475v908.702c0 11.516 6.65 21.996 19.948 31.715 13.214 9.72 29.498 14.578 48.935 14.578 18.586 0 34.86-4.86 49.013-14.578 14.067-9.627 21.227-20.2 21.227-31.715V45.09c0-13.3-6.818-24.038-20.543-32.56zm114.65 476.853c-8.348 7.76-11.935 19.527-10.396 35.645 1.45 15.934 8.868 31.105 21.998 45.424 13.207 14.41 27.96 23.443 44.83 27.28 16.635 3.75 29.247 1.708 37.595-5.97l73.665-45.607v407.553c0 11.516 6.383 21.996 19.346 31.715 12.613 9.72 28.805 14.578 48.242 14.578s36.238-4.857 50.283-14.576c14.166-9.72 21.233-20.2 21.233-31.715V405.762c0-13.3-6.9-24.037-20.533-32.31-13.65-8.438-30.62-12.528-50.985-12.528-20.29 0-36.574 4.09-49.02 12.53L463.217 489.382z"/></svg>
